  0
SECTION
  2
HEADER
  9
$ACADVER
  1
AC1006
  9
$EXTMIN
 10
0.000000
 20
0.000000
 30
0.000000
  9
$EXTMAX
 10
2539.000000
 20
1327.000000
 30
0.000000
  0
ENDSEC
  0
SECTION
  2
ENTITIES
  0
POLYLINE
  8
0
 66
1
 70
1
  0
VERTEX
  8
0
 10
275.176274
 20
1079.995885
 42
0.025047
  0
VERTEX
  8
0
 10
264.596202
 20
1077.960783
 42
0.016667
  0
VERTEX
  8
0
 10
252.701911
 20
1074.624779
 42
0.016561
  0
VERTEX
  8
0
 10
241.706200
 20
1070.736487
 42
0.044372
  0
VERTEX
  8
0
 10
234.276837
 20
1067.039882
 42
0.117329
  0
VERTEX
  8
0
 10
231.146776
 20
1063.918719
 42
0.140109
  0
VERTEX
  8
0
 10
230.020026
 20
1059.922579
 42
0.147710
  0
VERTEX
  8
0
 10
231.192453
 20
1056.090124
 42
0.134718
  0
VERTEX
  8
0
 10
234.325753
 20
1053.381701
 42
0.056383
  0
VERTEX
  8
0
 10
236.552716
 20
1052.613126
 42
0.104087
  0
VERTEX
  8
0
 10
238.459516
 20
1052.589771
 42
0.047635
  0
VERTEX
  8
0
 10
241.071519
 20
1053.370301
 42
0.004549
  0
VERTEX
  8
0
 10
247.217874
 20
1055.930436
 42
-0.016347
  0
VERTEX
  8
0
 10
257.736249
 20
1060.023220
 42
-0.030302
  0
VERTEX
  8
0
 10
266.543898
 20
1062.534985
 42
-0.030131
  0
VERTEX
  8
0
 10
275.623821
 20
1063.972140
 42
-0.015963
  0
VERTEX
  8
0
 10
287.000000
 20
1064.710450
 42
-0.020177
  0
VERTEX
  8
0
 10
298.905532
 20
1064.621589
 42
-0.027554
  0
VERTEX
  8
0
 10
309.574070
 20
1063.519828
 42
-0.028856
  0
VERTEX
  8
0
 10
319.657783
 20
1061.310437
 42
-0.025937
  0
VERTEX
  8
0
 10
329.794426
 20
1057.892045
 42
-0.108328
  0
VERTEX
  8
0
 10
368.333701
 20
1031.923929
 42
-0.108921
  0
VERTEX
  8
0
 10
392.382446
 20
992.261494
 42
-0.109398
  0
VERTEX
  8
0
 10
397.464508
 20
946.309902
 42
-0.110117
  0
VERTEX
  8
0
 10
382.642652
 20
902.629312
 42
0.006790
  0
VERTEX
  8
0
 10
380.842530
 20
899.577335
 42
0.083655
  0
VERTEX
  8
0
 10
380.377976
 20
898.314103
 42
0.226899
  0
VERTEX
  8
0
 10
380.598237
 20
897.488655
 42
0.088628
  0
VERTEX
  8
0
 10
381.534049
 20
896.721007
 42
-0.035212
  0
VERTEX
  8
0
 10
382.513814
 20
896.078257
 42
-0.007754
  0
VERTEX
  8
0
 10
384.095623
 20
894.834042
 42
-0.008030
  0
VERTEX
  8
0
 10
385.882753
 20
893.334649
 42
-0.007646
  0
VERTEX
  8
0
 10
387.650646
 20
891.754375
 42
0.000000
  0
VERTEX
  8
0
 10
391.913125
 20
887.825358
 42
0.000000
  0
VERTEX
  8
0
 10
395.624148
 20
893.626620
 42
0.016373
  0
VERTEX
  8
0
 10
397.322811
 20
896.484007
 42
0.007152
  0
VERTEX
  8
0
 10
399.395908
 20
900.377181
 42
0.007069
  0
VERTEX
  8
0
 10
401.481642
 20
904.577855
 42
0.009372
  0
VERTEX
  8
0
 10
403.252961
 20
908.460801
 42
0.053744
  0
VERTEX
  8
0
 10
411.379980
 20
934.561882
 42
0.055113
  0
VERTEX
  8
0
 10
413.663787
 20
961.571937
 42
0.055527
  0
VERTEX
  8
0
 10
409.994740
 20
988.244288
 42
0.056143
  0
VERTEX
  8
0
 10
400.550216
 20
1013.350204
 42
0.055615
  0
VERTEX
  8
0
 10
385.194607
 20
1036.630331
 42
0.057217
  0
VERTEX
  8
0
 10
365.215970
 20
1055.705817
 42
0.056951
  0
VERTEX
  8
0
 10
341.343686
 20
1069.827661
 42
0.054177
  0
VERTEX
  8
0
 10
314.500000
 20
1078.490461
 42
0.029115
  0
VERTEX
  8
0
 10
306.059999
 20
1079.728945
 42
0.012306
  0
VERTEX
  8
0
 10
294.626946
 20
1080.448752
 42
0.012206
  0
VERTEX
  8
0
 10
283.269678
 20
1080.606094
 42
0.032359
  0
SEQEND
  0
POLYLINE
  8
0
 66
1
 70
1
  0
VERTEX
  8
0
 10
217.834423
 20
1053.611132
 42
0.128809
  0
VERTEX
  8
0
 10
216.143316
 20
1052.138322
 42
0.109077
  0
VERTEX
  8
0
 10
215.259939
 20
1049.931654
 42
0.109165
  0
VERTEX
  8
0
 10
215.388101
 20
1047.559663
 42
0.129200
  0
VERTEX
  8
0
 10
216.517138
 20
1045.625720
 42
0.171045
  0
VERTEX
  8
0
 10
219.680639
 20
1044.110869
 42
0.173180
  0
VERTEX
  8
0
 10
223.075991
 20
1044.924456
 42
0.172440
  0
VERTEX
  8
0
 10
225.197825
 20
1047.709042
 42
0.169838
  0
VERTEX
  8
0
 10
225.103290
 20
1051.228326
 42
0.100410
  0
VERTEX
  8
0
 10
223.945189
 20
1053.061359
 42
0.123219
  0
VERTEX
  8
0
 10
222.236639
 20
1054.137237
 42
0.115039
  0
VERTEX
  8
0
 10
220.127783
 20
1054.322659
 42
0.079903
  0
SEQEND
  0
POLYLINE
  8
0
 66
1
 70
1
  0
VERTEX
  8
0
 10
204.654988
 20
1041.171259
 42
0.085798
  0
VERTEX
  8
0
 10
203.488322
 20
1039.328415
 42
0.095846
  0
VERTEX
  8
0
 10
203.066823
 20
1037.271323
 42
0.099518
  0
VERTEX
  8
0
 10
203.446835
 20
1035.267185
 42
0.100240
  0
VERTEX
  8
0
 10
204.571429
 20
1033.571429
 42
0.140036
  0
VERTEX
  8
0
 10
207.229109
 20
1032.094807
 42
0.167809
  0
VERTEX
  8
0
 10
210.061528
 20
1032.389427
 42
0.159721
  0
VERTEX
  8
0
 10
212.206475
 20
1034.399421
 42
0.125935
  0
VERTEX
  8
0
 10
213.000000
 20
1037.500000
 42
0.123214
  0
VERTEX
  8
0
 10
212.209690
 20
1040.658367
 42
0.168045
  0
VERTEX
  8
0
 10
210.073717
 20
1042.638008
 42
0.177539
  0
VERTEX
  8
0
 10
207.266608
 20
1042.815192
 42
0.137571
  0
SEQEND
  0
POLYLINE
  8
0
 66
1
 70
1
  0
VERTEX
  8
0
 10
282.851352
 20
1038.885775
 42
0.037455
  0
VERTEX
  8
0
 10
272.579341
 20
1037.259896
 42
0.033079
  0
VERTEX
  8
0
 10
262.215387
 20
1034.076759
 42
0.032198
  0
VERTEX
  8
0
 10
252.082485
 20
1029.448003
 42
0.031062
  0
VERTEX
  8
0
 10
242.500000
 20
1023.507115
 42
0.049768
  0
VERTEX
  8
0
 10
232.162574
 20
1014.503665
 42
0.043791
  0
VERTEX
  8
0
 10
223.306349
 20
1003.262500
 42
0.042348
  0
VERTEX
  8
0
 10
216.282350
 20
990.254400
 42
0.039989
  0
VERTEX
  8
0
 10
211.391410
 20
976.000000
 42
0.044395
  0
VERTEX
  8
0
 10
210.046326
 20
967.762703
 42
0.021576
  0
VERTEX
  8
0
 10
209.726356
 20
957.095491
 42
0.021574
  0
VERTEX
  8
0
 10
210.334034
 20
946.313250
 42
0.039620
  0
VERTEX
  8
0
 10
211.895873
 20
937.663497
 42
0.068715
  0
VERTEX
  8
0
 10
220.617276
 20
916.747590
 42
0.069414
  0
VERTEX
  8
0
 10
234.657016
 20
899.058116
 42
0.069804
  0
VERTEX
  8
0
 10
252.923033
 20
885.964399
 42
0.070804
  0
VERTEX
  8
0
 10
274.000000
 20
878.480672
 42
0.035965
  0
VERTEX
  8
0
 10
284.284242
 20
877.157993
 42
0.027319
  0
VERTEX
  8
0
 10
295.654827
 20
877.142225
 42
0.027645
  0
VERTEX
  8
0
 10
306.751067
 20
878.351056
 42
0.041542
  0
VERTEX
  8
0
 10
316.187856
 20
880.728768
 42
0.060548
  0
VERTEX
  8
0
 10
335.487717
 20
890.070930
 42
0.065207
  0
VERTEX
  8
0
 10
351.455118
 20
903.574392
 42
0.065613
  0
VERTEX
  8
0
 10
363.329743
 20
920.653596
 42
0.062560
  0
VERTEX
  8
0
 10
370.609061
 20
940.500000
 42
0.038016
  0
VERTEX
  8
0
 10
371.875529
 20
948.846132
 42
0.022344
  0
VERTEX
  8
0
 10
372.177708
 20
958.942935
 42
0.022315
  0
VERTEX
  8
0
 10
371.575883
 20
969.065606
 42
0.036763
  0
VERTEX
  8
0
 10
370.062869
 20
977.500000
 42
0.040962
  0
VERTEX
  8
0
 10
365.787382
 20
989.866447
 42
0.037842
  0
VERTEX
  8
0
 10
359.459062
 20
1001.719560
 42
0.038328
  0
VERTEX
  8
0
 10
351.514933
 20
1012.330278
 42
0.045040
  0
VERTEX
  8
0
 10
342.426620
 20
1020.994217
 42
0.045081
  0
VERTEX
  8
0
 10
328.946140
 20
1029.852783
 42
0.049924
  0
VERTEX
  8
0
 10
314.538601
 20
1035.800581
 42
0.049674
  0
VERTEX
  8
0
 10
299.173810
 20
1038.795099
 42
0.043858
  0
SEQEND
  0
POLYLINE
  8
0
 66
1
 70
1
  0
VERTEX
  8
0
 10
298.566341
 20
1002.924296
 42
-0.096058
  0
VERTEX
  8
0
 10
315.144760
 20
996.477555
 42
-0.096541
  0
VERTEX
  8
0
 10
328.078164
 20
984.310319
 42
-0.097613
  0
VERTEX
  8
0
 10
335.397591
 20
968.300717
 42
-0.100665
  0
VERTEX
  8
0
 10
335.981918
 20
950.892796
 42
-0.093125
  0
VERTEX
  8
0
 10
330.033814
 20
934.739138
 42
-0.092874
  0
VERTEX
  8
0
 10
318.624242
 20
921.828230
 42
-0.093478
  0
VERTEX
  8
0
 10
303.384229
 20
913.982610
 42
-0.095821
  0
VERTEX
  8
0
 10
286.469943
 20
912.320576
 42
-0.073330
  0
VERTEX
  8
0
 10
275.743151
 20
914.940015
 42
-0.057289
  0
VERTEX
  8
0
 10
265.209542
 20
920.699456
 42
-0.057109
  0
VERTEX
  8
0
 10
256.223895
 20
928.723160
 42
-0.071633
  0
VERTEX
  8
0
 10
250.065140
 20
938.026182
 42
-0.122301
  0
VERTEX
  8
0
 10
245.602251
 20
960.229053
 42
-0.127265
  0
VERTEX
  8
0
 10
252.163521
 20
981.575969
 42
-0.125326
  0
VERTEX
  8
0
 10
268.369244
 20
997.292559
 42
-0.116576
  0
VERTEX
  8
0
 10
290.566341
 20
1003.883097
 42
-0.036545
  0
VERTEX
  8
0
 10
291.724640
 20
1003.863934
 42
-0.007421
  0
VERTEX
  8
0
 10
293.768706
 20
1003.649672
 42
-0.007788
  0
VERTEX
  8
0
 10
296.143109
 20
1003.327514
 42
-0.007228
  0
SEQEND
  0
POLYLINE
  8
0
 66
1
 70
1
  0
VERTEX
  8
0
 10
193.440125
 20
1027.548963
 42
0.091063
  0
VERTEX
  8
0
 10
192.474340
 20
1025.254528
 42
0.127462
  0
VERTEX
  8
0
 10
192.555738
 20
1023.041719
 42
0.131090
  0
VERTEX
  8
0
 10
193.693306
 20
1021.190528
 42
0.099265
  0
VERTEX
  8
0
 10
195.720548
 20
1019.916148
 42
0.168170
  0
VERTEX
  8
0
 10
199.254799
 20
1019.809738
 42
0.170881
  0
VERTEX
  8
0
 10
202.070853
 20
1021.913496
 42
0.174064
  0
VERTEX
  8
0
 10
202.917043
 20
1025.283451
 42
0.173391
  0
VERTEX
  8
0
 10
201.428571
 20
1028.428571
 42
0.109546
  0
VERTEX
  8
0
 10
199.487967
 20
1029.664724
 42
0.115161
  0
VERTEX
  8
0
 10
197.242929
 20
1029.934618
 42
0.114343
  0
VERTEX
  8
0
 10
195.098066
 20
1029.182255
 42
0.106828
  0
SEQEND
  0
POLYLINE
  8
0
 66
1
 70
1
  0
VERTEX
  8
0
 10
186.222506
 20
1013.443296
 42
0.121894
  0
VERTEX
  8
0
 10
184.774011
 20
1011.782390
 42
0.088024
  0
VERTEX
  8
0
 10
184.047174
 20
1009.424417
 42
0.090171
  0
VERTEX
  8
0
 10
184.183385
 20
1007.013846
 42
0.138143
  0
VERTEX
  8
0
 10
185.200000
 20
1005.200000
 42
0.082665
  0
VERTEX
  8
0
 10
185.844671
 20
1004.739331
 42
0.037420
  0
VERTEX
  8
0
 10
186.811250
 20
1004.352500
 42
0.035729
  0
VERTEX
  8
0
 10
187.916514
 20
1004.088514
 42
0.040779
  0
VERTEX
  8
0
 10
189.000000
 20
1004.000000
 42
0.074039
  0
VERTEX
  8
0
 10
191.187823
 20
1004.325755
 42
0.126648
  0
VERTEX
  8
0
 10
192.754580
 20
1005.281112
 42
0.124082
  0
VERTEX
  8
0
 10
193.685447
 20
1006.890553
 42
0.069479
  0
VERTEX
  8
0
 10
194.000000
 20
1009.143296
 42
0.116018
  0
VERTEX
  8
0
 10
193.565908
 20
1010.988913
 42
0.061238
  0
VERTEX
  8
0
 10
192.260592
 20
1012.962560
 42
0.062438
  0
VERTEX
  8
0
 10
190.574721
 20
1014.500155
 42
0.154901
  0
VERTEX
  8
0
 10
189.000000
 20
1015.000000
 42
0.116516
  0
VERTEX
  8
0
 10
188.671438
 20
1014.922381
 42
0.011720
  0
VERTEX
  8
0
 10
187.955179
 20
1014.542718
 42
0.014201
  0
VERTEX
  8
0
 10
187.114203
 20
1014.039472
 42
0.010842
  0
SEQEND
  0
POLYLINE
  8
0
 66
1
 70
1
  0
VERTEX
  8
0
 10
176.173870
 20
998.300074
 42
0.158478
  0
VERTEX
  8
0
 10
172.872395
 20
993.083848
 42
0.021201
  0
VERTEX
  8
0
 10
170.156351
 20
980.185402
 42
0.024841
  0
VERTEX
  8
0
 10
168.441261
 20
965.398650
 42
0.030493
  0
VERTEX
  8
0
 10
168.374074
 20
951.500000
 42
0.042728
  0
VERTEX
  8
0
 10
171.477224
 20
929.721749
 42
0.045520
  0
VERTEX
  8
0
 10
178.209065
 20
909.265124
 42
0.045627
  0
VERTEX
  8
0
 10
188.513772
 20
890.406312
 42
0.043321
  0
VERTEX
  8
0
 10
202.227764
 20
873.373171
 42
0.012782
  0
VERTEX
  8
0
 10
209.315041
 20
866.351027
 42
0.021898
  0
VERTEX
  8
0
 10
215.617501
 20
860.918171
 42
0.022456
  0
VERTEX
  8
0
 10
222.257450
 20
856.150347
 42
0.014328
  0
VERTEX
  8
0
 10
230.366816
 20
851.187603
 42
0.030186
  0
VERTEX
  8
0
 10
243.131241
 20
844.860730
 42
0.030198
  0
VERTEX
  8
0
 10
256.562927
 20
840.117855
 42
0.029701
  0
VERTEX
  8
0
 10
270.681982
 20
836.965284
 42
0.027184
  0
VERTEX
  8
0
 10
285.500000
 20
835.389527
 42
0.018069
  0
VERTEX
  8
0
 10
293.641547
 20
835.263690
 42
0.012287
  0
VERTEX
  8
0
 10
302.898977
 20
835.682884
 42
0.006180
  0
VERTEX
  8
0
 10
311.662486
 20
836.404723
 42
0.174452
  0
VERTEX
  8
0
 10
313.694718
 20
837.361385
 42
0.261561
  0
VERTEX
  8
0
 10
313.777406
 20
837.655870
 42
0.003145
  0
VERTEX
  8
0
 10
313.278735
 20
839.657095
 42
0.008406
  0
VERTEX
  8
0
 10
312.637878
 20
841.997146
 42
0.005277
  0
VERTEX
  8
0
 10
311.813920
 20
844.711884
 42
0.000000
  0
VERTEX
  8
0
 10
309.602211
 20
851.731471
 42
0.000000
  0
VERTEX
  8
0
 10
296.324243
 20
851.224804
 42
-0.015439
  0
VERTEX
  8
0
 10
285.910300
 20
851.149154
 42
-0.024416
  0
VERTEX
  8
0
 10
277.007191
 20
851.795174
 42
-0.025691
  0
VERTEX
  8
0
 10
268.545884
 20
853.270519
 42
-0.019812
  0
VERTEX
  8
0
 10
259.500000
 20
855.712003
 42
-0.061803
  0
VERTEX
  8
0
 10
234.453768
 20
867.098405
 42
-0.064996
  0
VERTEX
  8
0
 10
213.420595
 20
884.105159
 42
-0.064498
  0
VERTEX
  8
0
 10
197.331706
 20
906.068655
 42
-0.059350
  0
VERTEX
  8
0
 10
186.819424
 20
932.022051
 42
-0.018238
  0
VERTEX
  8
0
 10
185.594099
 20
937.259646
 42
-0.025678
  0
VERTEX
  8
0
 10
184.915364
 20
942.007407
 42
-0.018041
  0
VERTEX
  8
0
 10
184.593183
 20
947.905159
 42
-0.004573
  0
VERTEX
  8
0
 10
184.503469
 20
957.500000
 42
-0.004846
  0
VERTEX
  8
0
 10
184.594980
 20
967.144506
 42
-0.017893
  0
VERTEX
  8
0
 10
184.929585
 20
973.226173
 42
-0.023851
  0
VERTEX
  8
0
 10
185.640827
 20
978.330926
 42
-0.014681
  0
VERTEX
  8
0
 10
186.938442
 20
984.259120
 42
0.000000
  0
VERTEX
  8
0
 10
189.376883
 20
994.018241
 42
0.000000
  0
VERTEX
  8
0
 10
187.339100
 20
996.759120
 42
0.105190
  0
VERTEX
  8
0
 10
185.027925
 20
998.793851
 42
0.094055
  0
VERTEX
  8
0
 10
181.994815
 20
999.814857
 42
0.095488
  0
VERTEX
  8
0
 10
178.838486
 20
999.646620
 42
0.112604
  0
SEQEND
  0
POLYLINE
  8
0
 66
1
 70
1
  0
VERTEX
  8
0
 10
347.950561
 20
887.686323
 42
0.127402
  0
VERTEX
  8
0
 10
334.431155
 20
879.824113
 42
0.136298
  0
VERTEX
  8
0
 10
326.847703
 20
866.569798
 42
0.137234
  0
VERTEX
  8
0
 10
327.212447
 20
851.374980
 42
0.129849
  0
VERTEX
  8
0
 10
335.380229
 20
838.201718
 42
0.086145
  0
VERTEX
  8
0
 10
344.171961
 20
832.370223
 42
0.094928
  0
VERTEX
  8
0
 10
354.120485
 20
830.098380
 42
0.094006
  0
VERTEX
  8
0
 10
364.282553
 20
831.657515
 42
0.082710
  0
VERTEX
  8
0
 10
373.684668
 20
836.852009
 42
0.051082
  0
VERTEX
  8
0
 10
378.036495
 20
841.087624
 42
0.063315
  0
VERTEX
  8
0
 10
381.086362
 20
845.841713
 42
0.059727
  0
VERTEX
  8
0
 10
382.968262
 20
851.433850
 42
0.039151
  0
VERTEX
  8
0
 10
383.830656
 20
858.185262
 42
0.012730
  0
VERTEX
  8
0
 10
383.932110
 20
862.533448
 42
0.039819
  0
VERTEX
  8
0
 10
383.693492
 20
865.446712
 42
0.046541
  0
VERTEX
  8
0
 10
383.021042
 20
868.033400
 42
0.022731
  0
VERTEX
  8
0
 10
381.715104
 20
871.185262
 42
0.035628
  0
VERTEX
  8
0
 10
379.025955
 20
875.998637
 42
0.048070
  0
VERTEX
  8
0
 10
375.903832
 20
879.885046
 42
0.049870
  0
VERTEX
  8
0
 10
372.196190
 20
882.997158
 42
0.042917
  0
VERTEX
  8
0
 10
367.760038
 20
885.495211
 42
0.038369
  0
VERTEX
  8
0
 10
362.717575
 20
887.337988
 42
0.040901
  0
VERTEX
  8
0
 10
357.559182
 20
888.340310
 42
0.042876
  0
VERTEX
  8
0
 10
352.549626
 20
888.462874
 42
0.053066
  0
SEQEND
  0
POLYLINE
  8
0
 66
1
 70
1
  0
VERTEX
  8
0
 10
364.034720
 20
871.975278
 42
-0.048361
  0
VERTEX
  8
0
 10
365.408271
 20
870.781660
 42
-0.025442
  0
VERTEX
  8
0
 10
366.879958
 20
869.062011
 42
-0.025060
  0
VERTEX
  8
0
 10
368.220678
 20
867.130902
 42
-0.035087
  0
VERTEX
  8
0
 10
369.202595
 20
865.274905
 42
-0.155822
  0
VERTEX
  8
0
 10
370.189228
 20
856.116294
 42
-0.157353
  0
VERTEX
  8
0
 10
365.676301
 20
848.123315
 42
-0.154676
  0
VERTEX
  8
0
 10
357.269445
 20
844.188741
 42
-0.150214
  0
VERTEX
  8
0
 10
348.019933
 20
845.751554
 42
-0.146396
  0
VERTEX
  8
0
 10
342.043510
 20
851.389985
 42
-0.135266
  0
VERTEX
  8
0
 10
339.912781
 20
859.568448
 42
-0.135273
  0
VERTEX
  8
0
 10
342.272252
 20
867.683557
 42
-0.146417
  0
VERTEX
  8
0
 10
348.404537
 20
873.151225
 42
-0.064095
  0
VERTEX
  8
0
 10
352.359965
 20
874.415573
 42
-0.064204
  0
VERTEX
  8
0
 10
356.504301
 20
874.636002
 42
-0.065334
  0
VERTEX
  8
0
 10
360.503565
 20
873.802063
 42
-0.070797
  0
SEQEND
  0
POLYLINE
  8
0
 66
1
 70
1
  0
VERTEX
  8
0
 10
278.165676
 20
804.524351
 42
0.064005
  0
VERTEX
  8
0
 10
267.884928
 20
800.767625
 42
0.069996
  0
VERTEX
  8
0
 10
259.229583
 20
794.615373
 42
0.068882
  0
VERTEX
  8
0
 10
252.501899
 20
786.219616
 42
0.059135
  0
VERTEX
  8
0
 10
247.883996
 20
775.875102
 42
0.070734
  0
VERTEX
  8
0
 10
246.649402
 20
768.249027
 42
0.002785
  0
VERTEX
  8
0
 10
246.260593
 20
739.862184
 42
0.001915
  0
VERTEX
  8
0
 10
246.042525
 20
689.117716
 42
0.000132
  0
VERTEX
  8
0
 10
246.013137
 20
545.660906
 42
0.000132
  0
VERTEX
  8
0
 10
246.059661
 20
401.041367
 42
0.001956
  0
VERTEX
  8
0
 10
246.287319
 20
350.416097
 42
0.003974
  0
VERTEX
  8
0
 10
246.737750
 20
322.882208
 42
0.044821
  0
VERTEX
  8
0
 10
247.977676
 20
312.042151
 42
0.081953
  0
VERTEX
  8
0
 10
257.530698
 20
287.192201
 42
0.078934
  0
VERTEX
  8
0
 10
274.655528
 20
266.362461
 42
0.078926
  0
VERTEX
  8
0
 10
297.394129
 20
251.863400
 42
0.081910
  0
VERTEX
  8
0
 10
323.217292
 20
245.361501
 42
0.000000
  0
VERTEX
  8
0
 10
331.018410
 20
244.710913
 42
0.000000
  0
VERTEX
  8
0
 10
330.759205
 20
509.605456
 42
0.000102
  0
VERTEX
  8
0
 10
330.553717
 20
683.433892
 42
0.001728
  0
VERTEX
  8
0
 10
330.276455
 20
740.689675
 42
0.002120
  0
VERTEX
  8
0
 10
329.874339
 20
772.758598
 42
0.094106
  0
VERTEX
  8
0
 10
328.521025
 20
779.285819
 42
0.054923
  0
VERTEX
  8
0
 10
324.452733
 20
786.700452
 42
0.046117
  0
VERTEX
  8
0
 10
318.648671
 20
793.539255
 42
0.046371
  0
VERTEX
  8
0
 10
311.729036
 20
799.160306
 42
0.057323
  0
VERTEX
  8
0
 10
304.347575
 20
802.956580
 42
0.045384
  0
VERTEX
  8
0
 10
298.492398
 20
804.575762
 42
0.029830
  0
VERTEX
  8
0
 10
291.544403
 20
805.409670
 42
0.029598
  0
VERTEX
  8
0
 10
284.455809
 20
805.414140
 42
0.041012
  0
SEQEND
  0
POLYLINE
  8
0
 66
1
 70
1
  0
VERTEX
  8
0
 10
387.000000
 20
572.000000
 42
0.000000
  0
VERTEX
  8
0
 10
387.000000
 20
339.000000
 42
0.000000
  0
VERTEX
  8
0
 10
430.494873
 20
339.000000
 42
0.000000
  0
VERTEX
  8
0
 10
473.989747
 20
339.000000
 42
0.000000
  0
VERTEX
  8
0
 10
474.244873
 20
432.481060
 42
0.000000
  0
VERTEX
  8
0
 10
474.500000
 20
525.962120
 42
0.000000
  0
VERTEX
  8
0
 10
505.912668
 20
440.231060
 42
0.000082
  0
VERTEX
  8
0
 10
518.161479
 20
406.818664
 42
0.000119
  0
VERTEX
  8
0
 10
528.958229
 20
377.403836
 42
0.000057
  0
VERTEX
  8
0
 10
538.158181
 20
352.366641
 42
0.002158
  0
VERTEX
  8
0
 10
540.254235
 20
346.739446
 42
0.000000
  0
VERTEX
  8
0
 10
543.183133
 20
338.978892
 42
0.000000
  0
VERTEX
  8
0
 10
586.247981
 20
339.239446
 42
0.000000
  0
VERTEX
  8
0
 10
629.312828
 20
339.500000
 42
0.000000
  0
VERTEX
  8
0
 10
662.406414
 20
431.132653
 42
0.000000
  0
VERTEX
  8
0
 10
695.500000
 20
522.765307
 42
0.000000
  0
VERTEX
  8
0
 10
695.755207
 20
430.882653
 42
0.000000
  0
VERTEX
  8
0
 10
696.010413
 20
339.000000
 42
0.000000
  0
VERTEX
  8
0
 10
739.505207
 20
339.000000
 42
0.000000
  0
VERTEX
  8
0
 10
783.000000
 20
339.000000
 42
0.000000
  0
VERTEX
  8
0
 10
783.000000
 20
572.000000
 42
0.000000
  0
VERTEX
  8
0
 10
783.000000
 20
805.000000
 42
0.000000
  0
VERTEX
  8
0
 10
738.250000
 20
804.988145
 42
0.000000
  0
VERTEX
  8
0
 10
693.500000
 20
804.976289
 42
0.000000
  0
VERTEX
  8
0
 10
640.013818
 20
647.524326
 42
-0.000501
  0
VERTEX
  8
0
 10
619.453955
 20
587.198910
 42
-0.000839
  0
VERTEX
  8
0
 10
602.034748
 20
536.533562
 42
-0.000032
  0
VERTEX
  8
0
 10
586.249552
 20
490.879599
 42
-0.558003
  0
VERTEX
  8
0
 10
585.831621
 20
490.786182
 42
-0.109896
  0
VERTEX
  8
0
 10
585.412942
 20
491.463187
 42
-0.000015
  0
VERTEX
  8
0
 10
569.627017
 20
536.821566
 42
-0.000402
  0
VERTEX
  8
0
 10
552.204610
 20
587.016938
 42
-0.000243
  0
VERTEX
  8
0
 10
531.644398
 20
646.500000
 42
0.000043
  0
VERTEX
  8
0
 10
511.086195
 20
706.054332
 42
0.000070
  0
VERTEX
  8
0
 10
493.665431
 20
756.482813
 42
0.000005
  0
VERTEX
  8
0
 10
477.996118
 20
801.819123
 42
0.009904
  0
VERTEX
  8
0
 10
477.469607
 20
803.250000
 42
0.282082
  0
VERTEX
  8
0
 10
476.043938
 20
804.330489
 42
0.015069
  0
VERTEX
  8
0
 10
470.128029
 20
804.736448
 42
0.008840
  0
VERTEX
  8
0
 10
459.402817
 20
804.958475
 42
0.000755
  0
VERTEX
  8
0
 10
431.893011
 20
805.000000
 42
0.000000
  0
VERTEX
  8
0
 10
387.000000
 20
805.000000
 42
0.000000
  0
SEQEND
  0
POLYLINE
  8
0
 66
1
 70
1
  0
VERTEX
  8
0
 10
979.000000
 20
572.009604
 42
0.000000
  0
VERTEX
  8
0
 10
979.000000
 20
339.000000
 42
0.000000
  0
VERTEX
  8
0
 10
1022.500000
 20
339.000000
 42
0.000000
  0
VERTEX
  8
0
 10
1066.000000
 20
339.000000
 42
0.000000
  0
VERTEX
  8
0
 10
1066.000000
 20
488.214286
 42
-0.000282
  0
VERTEX
  8
0
 10
1066.046128
 20
569.959662
 42
-0.002006
  0
VERTEX
  8
0
 10
1066.249812
 20
609.588830
 42
-0.000726
  0
VERTEX
  8
0
 10
1066.526113
 20
635.647001
 42
-0.678267
  0
VERTEX
  8
0
 10
1067.352071
 20
635.964286
 42
-0.054307
  0
VERTEX
  8
0
 10
1068.308411
 20
634.671931
 42
-0.000028
  0
VERTEX
  8
0
 10
1093.500320
 20
591.528571
 42
-0.000390
  0
VERTEX
  8
0
 10
1121.488501
 20
543.504085
 42
-0.000238
  0
VERTEX
  8
0
 10
1154.468733
 20
486.750000
 42
0.000000
  0
VERTEX
  8
0
 10
1240.233323
 20
339.000000
 42
0.000000
  0
VERTEX
  8
0
 10
1288.116662
 20
339.000000
 42
0.000000
  0
VERTEX
  8
0
 10
1336.000000
 20
339.000000
 42
0.000000
  0
VERTEX
  8
0
 10
1336.000000
 20
571.500000
 42
0.000000
  0
VERTEX
  8
0
 10
1336.000000
 20
804.000000
 42
0.000000
  0
VERTEX
  8
0
 10
1292.503268
 20
804.000000
 42
0.000000
  0
VERTEX
  8
0
 10
1249.006535
 20
804.000000
 42
0.000000
  0
VERTEX
  8
0
 10
1248.753268
 20
655.181878
 42
0.000000
  0
VERTEX
  8
0
 10
1248.500000
 20
506.363757
 42
0.000000
  0
VERTEX
  8
0
 10
1161.895697
 20
655.431878
 42
0.000000
  0
VERTEX
  8
0
 10
1075.291395
 20
804.500000
 42
0.000000
  0
VERTEX
  8
0
 10
1027.145697
 20
804.759604
 42
0.000000
  0
VERTEX
  8
0
 10
979.000000
 20
805.019208
 42
0.000000
  0
SEQEND
  0
POLYLINE
  8
0
 66
1
 70
1
  0
VERTEX
  8
0
 10
1531.000000
 20
572.000000
 42
0.000000
  0
VERTEX
  8
0
 10
1531.000000
 20
339.000000
 42
0.000000
  0
VERTEX
  8
0
 10
1574.500000
 20
339.000000
 42
0.000000
  0
VERTEX
  8
0
 10
1618.000000
 20
339.000000
 42
0.000000
  0
VERTEX
  8
0
 10
1618.000000
 20
488.166667
 42
-0.000471
  0
VERTEX
  8
0
 10
1618.053859
 20
545.314449
 42
-0.000792
  0
VERTEX
  8
0
 10
1618.220313
 20
593.298454
 42
-0.000036
  0
VERTEX
  8
0
 10
1618.441504
 20
636.465884
 42
-0.663713
  0
VERTEX
  8
0
 10
1618.750000
 20
636.594027
 42
-0.066222
  0
VERTEX
  8
0
 10
1619.273696
 20
635.919708
 42
-0.000010
  0
VERTEX
  8
0
 10
1644.574812
 20
592.544792
 42
-0.000250
  0
VERTEX
  8
0
 10
1672.539650
 20
544.546019
 42
-0.000151
  0
VERTEX
  8
0
 10
1705.611061
 20
487.677360
 42
0.000000
  0
VERTEX
  8
0
 10
1791.722121
 20
339.500000
 42
0.000000
  0
VERTEX
  8
0
 10
1839.861061
 20
339.240396
 42
0.000000
  0
VERTEX
  8
0
 10
1888.000000
 20
338.980792
 42
0.000000
  0
VERTEX
  8
0
 10
1888.000000
 20
571.490396
 42
0.000000
  0
VERTEX
  8
0
 10
1888.000000
 20
804.000000
 42
0.000000
  0
VERTEX
  8
0
 10
1844.503268
 20
804.000000
 42
0.000000
  0
VERTEX
  8
0
 10
1801.006535
 20
804.000000
 42
0.000000
  0
VERTEX
  8
0
 10
1800.753268
 20
654.980362
 42
0.000000
  0
VERTEX
  8
0
 10
1800.500000
 20
505.960724
 42
0.000000
  0
VERTEX
  8
0
 10
1713.640051
 20
655.480362
 42
0.000000
  0
VERTEX
  8
0
 10
1626.780103
 20
805.000000
 42
0.000000
  0
VERTEX
  8
0
 10
1578.890051
 20
805.000000
 42
0.000000
  0
VERTEX
  8
0
 10
1531.000000
 20
805.000000
 42
0.000000
  0
SEQEND
  0
POLYLINE
  8
0
 66
1
 70
1
  0
VERTEX
  8
0
 10
839.000000
 20
571.000000
 42
0.000000
  0
VERTEX
  8
0
 10
839.000000
 20
339.000000
 42
0.000000
  0
VERTEX
  8
0
 10
881.500000
 20
339.000000
 42
0.000000
  0
VERTEX
  8
0
 10
924.000000
 20
339.000000
 42
0.000000
  0
VERTEX
  8
0
 10
924.000000
 20
571.000000
 42
0.000000
  0
VERTEX
  8
0
 10
924.000000
 20
803.000000
 42
0.000000
  0
VERTEX
  8
0
 10
881.500000
 20
803.000000
 42
0.000000
  0
VERTEX
  8
0
 10
839.000000
 20
803.000000
 42
0.000000
  0
SEQEND
  0
POLYLINE
  8
0
 66
1
 70
1
  0
VERTEX
  8
0
 10
1391.000000
 20
571.000000
 42
0.000000
  0
VERTEX
  8
0
 10
1391.000000
 20
339.000000
 42
0.000000
  0
VERTEX
  8
0
 10
1433.500000
 20
339.000000
 42
0.000000
  0
VERTEX
  8
0
 10
1476.000000
 20
339.000000
 42
0.000000
  0
VERTEX
  8
0
 10
1476.000000
 20
571.000000
 42
0.000000
  0
VERTEX
  8
0
 10
1476.000000
 20
803.000000
 42
0.000000
  0
VERTEX
  8
0
 10
1433.500000
 20
803.000000
 42
0.000000
  0
VERTEX
  8
0
 10
1391.000000
 20
803.000000
 42
0.000000
  0
SEQEND
  0
POLYLINE
  8
0
 66
1
 70
1
  0
VERTEX
  8
0
 10
2091.500000
 20
801.416468
 42
0.056309
  0
VERTEX
  8
0
 10
2052.778605
 20
790.878488
 42
0.052525
  0
VERTEX
  8
0
 10
2016.400280
 20
771.792933
 42
0.051190
  0
VERTEX
  8
0
 10
1983.966752
 20
745.002041
 42
0.048220
  0
VERTEX
  8
0
 10
1956.920385
 20
711.674273
 42
0.048915
  0
VERTEX
  8
0
 10
1934.686138
 20
669.748540
 42
0.047007
  0
VERTEX
  8
0
 10
1920.660942
 20
623.743923
 42
0.046558
  0
VERTEX
  8
0
 10
1915.385189
 20
575.498560
 42
0.046060
  0
VERTEX
  8
0
 10
1919.092365
 20
526.931193
 42
0.041588
  0
VERTEX
  8
0
 10
1929.356296
 20
486.961987
 42
0.041547
  0
VERTEX
  8
0
 10
1946.095641
 20
449.228833
 42
0.042341
  0
VERTEX
  8
0
 10
1968.474387
 20
415.457351
 42
0.047225
  0
VERTEX
  8
0
 10
1995.500000
 20
387.262636
 42
0.029576
  0
VERTEX
  8
0
 10
2016.010310
 20
371.571589
 42
0.032029
  0
VERTEX
  8
0
 10
2037.706971
 20
358.862596
 42
0.032816
  0
VERTEX
  8
0
 10
2060.333886
 20
349.289787
 42
0.034620
  0
VERTEX
  8
0
 10
2083.621434
 20
342.959579
 42
0.026901
  0
VERTEX
  8
0
 10
2095.583741
 20
341.244386
 42
0.012956
  0
VERTEX
  8
0
 10
2111.046314
 20
340.273421
 42
0.012959
  0
VERTEX
  8
0
 10
2126.553490
 20
340.104613
 42
0.026634
  0
VERTEX
  8
0
 10
2138.665136
 20
340.932966
 42
0.063245
  0
VERTEX
  8
0
 10
2182.881999
 20
352.122860
 42
0.060718
  0
VERTEX
  8
0
 10
2223.564186
 20
374.109097
 42
0.058289
  0
VERTEX
  8
0
 10
2259.165064
 20
406.175064
 42
0.050543
  0
VERTEX
  8
0
 10
2288.379996
 20
447.085056
 42
0.000000
  0
VERTEX
  8
0
 10
2295.000000
 20
458.670113
 42
0.000000
  0
VERTEX
  8
0
 10
2295.000000
 20
526.835056
 42
0.000000
  0
VERTEX
  8
0
 10
2295.000000
 20
595.000000
 42
0.000000
  0
VERTEX
  8
0
 10
2206.000000
 20
595.000000
 42
0.000000
  0
VERTEX
  8
0
 10
2117.000000
 20
595.000000
 42
0.000000
  0
VERTEX
  8
0
 10
2117.000000
 20
547.500000
 42
0.000000
  0
VERTEX
  8
0
 10
2117.000000
 20
500.000000
 42
0.000000
  0
VERTEX
  8
0
 10
2167.106989
 20
500.000000
 42
-0.000699
  0
VERTEX
  8
0
 10
2196.899806
 20
499.958328
 42
-0.007342
  0
VERTEX
  8
0
 10
2209.096227
 20
499.745103
 42
-0.009898
  0
VERTEX
  8
0
 10
2215.980012
 20
499.387108
 42
-0.503398
  0
VERTEX
  8
0
 10
2216.602861
 20
498.407456
 42
-0.046200
  0
VERTEX
  8
0
 10
2216.120617
 20
497.431022
 42
-0.004060
  0
VERTEX
  8
0
 10
2214.656479
 20
495.091513
 42
-0.005293
  0
VERTEX
  8
0
 10
2212.854554
 20
492.328558
 42
-0.004094
  0
VERTEX
  8
0
 10
2210.835043
 20
489.355479
 42
-0.048016
  0
VERTEX
  8
0
 10
2195.536672
 20
471.222871
 42
-0.044653
  0
VERTEX
  8
0
 10
2176.707212
 20
455.847106
 42
-0.045245
  0
VERTEX
  8
0
 10
2155.720434
 20
444.242746
 42
-0.052698
  0
VERTEX
  8
0
 10
2134.019464
 20
437.306440
 42
-0.041605
  0
VERTEX
  8
0
 10
2124.913310
 20
436.200039
 42
-0.019209
  0
VERTEX
  8
0
 10
2112.971153
 20
436.207998
 42
-0.019240
  0
VERTEX
  8
0
 10
2100.942310
 20
437.142770
 42
-0.037522
  0
VERTEX
  8
0
 10
2091.500000
 20
438.968899
 42
-0.069096
  0
VERTEX
  8
0
 10
2065.047493
 20
450.278475
 42
-0.060873
  0
VERTEX
  8
0
 10
2041.391278
 20
468.774676
 42
-0.058249
  0
VERTEX
  8
0
 10
2022.000518
 20
493.288202
 42
-0.053467
  0
VERTEX
  8
0
 10
2008.121949
 20
522.311593
 42
-0.018190
  0
VERTEX
  8
0
 10
2004.360123
 20
534.351471
 42
-0.028721
  0
VERTEX
  8
0
 10
2002.115429
 20
544.932987
 42
-0.025993
  0
VERTEX
  8
0
 10
2000.966067
 20
556.430519
 42
-0.011916
  0
VERTEX
  8
0
 10
2000.606885
 20
571.500000
 42
-0.004007
  0
VERTEX
  8
0
 10
2000.695763
 20
582.589716
 42
-0.014205
  0
VERTEX
  8
0
 10
2001.011777
 20
589.696668
 42
-0.019737
  0
VERTEX
  8
0
 10
2001.662702
 20
595.467922
 42
-0.015291
  0
VERTEX
  8
0
 10
2002.809826
 20
601.688407
 42
-0.069702
  0
VERTEX
  8
0
 10
2017.583187
 20
641.895264
 42
-0.077891
  0
VERTEX
  8
0
 10
2042.440338
 20
674.813512
 42
-0.082568
  0
VERTEX
  8
0
 10
2074.782227
 20
697.120486
 42
-0.092827
  0
VERTEX
  8
0
 10
2111.317309
 20
706.601748
 42
-0.036334
  0
VERTEX
  8
0
 10
2124.577301
 20
706.550710
 42
-0.030597
  0
VERTEX
  8
0
 10
2138.490165
 20
704.623264
 42
-0.030535
  0
VERTEX
  8
0
 10
2152.096051
 20
701.005447
 42
-0.035728
  0
VERTEX
  8
0
 10
2164.438394
 20
695.897927
 42
-0.047798
  0
VERTEX
  8
0
 10
2181.524468
 20
685.202182
 42
-0.039394
  0
VERTEX
  8
0
 10
2197.501962
 20
670.800191
 42
-0.038920
  0
VERTEX
  8
0
 10
2211.220463
 20
653.858750
 42
-0.043519
  0
VERTEX
  8
0
 10
2221.578668
 20
635.593654
 42
0.006488
  0
VERTEX
  8
0
 10
2223.133992
 20
632.305928
 42
0.010272
  0
VERTEX
  8
0
 10
2224.560534
 20
629.534689
 42
0.004560
  0
VERTEX
  8
0
 10
2225.827176
 20
627.243713
 42
0.267063
  0
VERTEX
  8
0
 10
2226.223151
 20
627.009209
 42
0.222070
  0
VERTEX
  8
0
 10
2227.471992
 20
627.573382
 42
0.000109
  0
VERTEX
  8
0
 10
2256.761189
 20
661.703290
 42
0.000181
  0
VERTEX
  8
0
 10
2285.724739
 20
695.493327
 42
0.119408
  0
VERTEX
  8
0
 10
2286.827137
 20
697.660415
 42
0.212579
  0
VERTEX
  8
0
 10
2286.000721
 20
702.051453
 42
0.007967
  0
VERTEX
  8
0
 10
2276.015768
 20
716.011627
 42
0.014889
  0
VERTEX
  8
0
 10
2264.529481
 20
730.611703
 42
0.018882
  0
VERTEX
  8
0
 10
2253.034386
 20
743.350271
 42
0.035267
  0
VERTEX
  8
0
 10
2227.813626
 20
765.848279
 42
0.042833
  0
VERTEX
  8
0
 10
2201.195143
 20
782.995807
 42
0.044548
  0
VERTEX
  8
0
 10
2172.984161
 20
794.844642
 42
0.044086
  0
VERTEX
  8
0
 10
2143.022045
 20
801.559970
 42
0.022945
  0
VERTEX
  8
0
 10
2131.573418
 20
802.552600
 42
0.010848
  0
VERTEX
  8
0
 10
2116.748141
 20
802.832972
 42
0.010757
  0
VERTEX
  8
0
 10
2102.128592
 20
802.477662
 42
0.026857
  0
SEQEND
  0
ENDSEC
  0
EOF
